<mxfile host="Electron" modified="2024-04-11T14:27:35.502Z" agent="Mozilla/5.0 (Windows NT 10.0; Win64; x64) AppleWebKit/537.36 (KHTML, like Gecko) draw.io/24.1.0 Chrome/120.0.6099.109 Electron/28.1.0 Safari/537.36" etag="0i955Acz-bBI86AsdkoW" version="24.1.0" type="device">
  <diagram id="kgpKYQtTHZ0yAKxKKP6v" name="Page-1">
    <mxGraphModel dx="1482" dy="3325" grid="0" gridSize="10" guides="1" tooltips="1" connect="1" arrows="1" fold="1" page="1" pageScale="1" pageWidth="850" pageHeight="1100" background="none" math="0" shadow="0">
      <root>
        <mxCell id="0" />
        <mxCell id="1" parent="0" />
        <mxCell id="QdUmvHCU_gGnPU_W8vJt-22" value="Create Template" style="ellipse;whiteSpace=wrap;html=1;" vertex="1" parent="1">
          <mxGeometry x="85" y="68" width="140" height="70" as="geometry" />
        </mxCell>
        <mxCell id="QdUmvHCU_gGnPU_W8vJt-130" style="rounded=0;orthogonalLoop=1;jettySize=auto;html=1;dashed=1;dashPattern=8 8;entryX=0;entryY=1;entryDx=0;entryDy=0;exitX=1;exitY=0.5;exitDx=0;exitDy=0;" edge="1" parent="1" source="QdUmvHCU_gGnPU_W8vJt-25">
          <mxGeometry relative="1" as="geometry">
            <mxPoint x="500" y="1210" as="sourcePoint" />
            <mxPoint x="796.5079632594607" y="793.5324543999013" as="targetPoint" />
          </mxGeometry>
        </mxCell>
        <mxCell id="QdUmvHCU_gGnPU_W8vJt-179" value="&amp;lt;&amp;lt;includes&amp;gt;&amp;gt;" style="edgeLabel;html=1;align=center;verticalAlign=middle;resizable=0;points=[];fontFamily=Helvetica;fontSize=11;fontColor=default;labelBackgroundColor=default;" vertex="1" connectable="0" parent="QdUmvHCU_gGnPU_W8vJt-130">
          <mxGeometry x="-0.1802" y="-2" relative="1" as="geometry">
            <mxPoint as="offset" />
          </mxGeometry>
        </mxCell>
        <mxCell id="QdUmvHCU_gGnPU_W8vJt-132" style="rounded=0;orthogonalLoop=1;jettySize=auto;html=1;dashed=1;dashPattern=8 8;exitDx=0;exitDy=0;exitX=1;exitY=0.5;entryX=0;entryY=1;entryDx=0;entryDy=0;" edge="1" parent="1" source="QdUmvHCU_gGnPU_W8vJt-101">
          <mxGeometry relative="1" as="geometry">
            <mxPoint x="628" y="825" as="sourcePoint" />
            <mxPoint x="796.5079632594607" y="793.5324543999013" as="targetPoint" />
          </mxGeometry>
        </mxCell>
        <mxCell id="QdUmvHCU_gGnPU_W8vJt-177" value="&amp;lt;&amp;lt;includes&amp;gt;&amp;gt;" style="edgeLabel;html=1;align=center;verticalAlign=middle;resizable=0;points=[];fontFamily=Helvetica;fontSize=11;fontColor=default;labelBackgroundColor=default;" vertex="1" connectable="0" parent="QdUmvHCU_gGnPU_W8vJt-132">
          <mxGeometry x="0.1698" y="1" relative="1" as="geometry">
            <mxPoint as="offset" />
          </mxGeometry>
        </mxCell>
        <mxCell id="QdUmvHCU_gGnPU_W8vJt-134" style="rounded=0;orthogonalLoop=1;jettySize=auto;html=1;dashed=1;dashPattern=8 8;exitDx=0;exitDy=0;exitX=1;exitY=0.5;entryX=0;entryY=1;entryDx=0;entryDy=0;" edge="1" parent="1" source="QdUmvHCU_gGnPU_W8vJt-102">
          <mxGeometry relative="1" as="geometry">
            <mxPoint x="237" y="1345" as="sourcePoint" />
            <mxPoint x="796.5079632594607" y="793.5324543999013" as="targetPoint" />
          </mxGeometry>
        </mxCell>
        <mxCell id="QdUmvHCU_gGnPU_W8vJt-178" value="&amp;lt;&amp;lt;includes&amp;gt;&amp;gt;" style="edgeLabel;html=1;align=center;verticalAlign=middle;resizable=0;points=[];fontFamily=Helvetica;fontSize=11;fontColor=default;labelBackgroundColor=default;" vertex="1" connectable="0" parent="QdUmvHCU_gGnPU_W8vJt-134">
          <mxGeometry x="0.0881" relative="1" as="geometry">
            <mxPoint as="offset" />
          </mxGeometry>
        </mxCell>
        <mxCell id="QdUmvHCU_gGnPU_W8vJt-150" value="" style="group" vertex="1" connectable="0" parent="1">
          <mxGeometry x="205" y="260" width="140" height="190" as="geometry" />
        </mxCell>
        <mxCell id="QdUmvHCU_gGnPU_W8vJt-116" style="rounded=0;orthogonalLoop=1;jettySize=auto;html=1;dashed=1;dashPattern=8 8;exitX=0.5;exitY=1;exitDx=0;exitDy=0;" edge="1" parent="QdUmvHCU_gGnPU_W8vJt-150" target="QdUmvHCU_gGnPU_W8vJt-47">
          <mxGeometry relative="1" as="geometry">
            <mxPoint x="70" y="70" as="sourcePoint" />
            <mxPoint x="742" y="367" as="targetPoint" />
          </mxGeometry>
        </mxCell>
        <mxCell id="QdUmvHCU_gGnPU_W8vJt-117" value="&amp;lt;&amp;lt;includes&amp;gt;&amp;gt;" style="edgeLabel;html=1;align=center;verticalAlign=middle;resizable=0;points=[];" vertex="1" connectable="0" parent="QdUmvHCU_gGnPU_W8vJt-116">
          <mxGeometry x="-0.0452" relative="1" as="geometry">
            <mxPoint as="offset" />
          </mxGeometry>
        </mxCell>
        <mxCell id="QdUmvHCU_gGnPU_W8vJt-162" value="" style="endArrow=none;html=1;rounded=0;" edge="1" parent="1" target="QdUmvHCU_gGnPU_W8vJt-45">
          <mxGeometry width="50" height="50" relative="1" as="geometry">
            <mxPoint x="-450" y="727.330074825054" as="sourcePoint" />
            <mxPoint x="330" y="990" as="targetPoint" />
          </mxGeometry>
        </mxCell>
        <mxCell id="QdUmvHCU_gGnPU_W8vJt-163" value="" style="endArrow=none;html=1;rounded=0;" edge="1" parent="1" target="QdUmvHCU_gGnPU_W8vJt-27">
          <mxGeometry width="50" height="50" relative="1" as="geometry">
            <mxPoint x="-450" y="731.7838680173254" as="sourcePoint" />
            <mxPoint x="205" y="960" as="targetPoint" />
          </mxGeometry>
        </mxCell>
        <mxCell id="QdUmvHCU_gGnPU_W8vJt-164" value="" style="endArrow=none;html=1;rounded=0;entryX=0;entryY=0.5;entryDx=0;entryDy=0;" edge="1" parent="1" target="QdUmvHCU_gGnPU_W8vJt-26">
          <mxGeometry width="50" height="50" relative="1" as="geometry">
            <mxPoint x="-450" y="719.4427480916029" as="sourcePoint" />
            <mxPoint x="215" y="1005" as="targetPoint" />
          </mxGeometry>
        </mxCell>
        <mxCell id="QdUmvHCU_gGnPU_W8vJt-183" value="" style="endArrow=none;html=1;rounded=0;" edge="1" parent="1" target="QdUmvHCU_gGnPU_W8vJt-23">
          <mxGeometry width="50" height="50" relative="1" as="geometry">
            <mxPoint x="-450" y="724.5108800023472" as="sourcePoint" />
            <mxPoint x="-280" y="1140" as="targetPoint" />
          </mxGeometry>
        </mxCell>
        <mxCell id="QdUmvHCU_gGnPU_W8vJt-185" style="rounded=0;orthogonalLoop=1;jettySize=auto;html=1;dashed=1;dashPattern=8 8;exitX=0.5;exitY=0;exitDx=0;exitDy=0;" edge="1" parent="1" target="QdUmvHCU_gGnPU_W8vJt-23">
          <mxGeometry relative="1" as="geometry">
            <mxPoint x="260" y="1560" as="sourcePoint" />
            <mxPoint x="150" y="1410" as="targetPoint" />
          </mxGeometry>
        </mxCell>
        <mxCell id="QdUmvHCU_gGnPU_W8vJt-186" value="&amp;lt;&amp;lt;includes&amp;gt;&amp;gt;" style="edgeLabel;html=1;align=center;verticalAlign=middle;resizable=0;points=[];" vertex="1" connectable="0" parent="QdUmvHCU_gGnPU_W8vJt-185">
          <mxGeometry x="-0.0452" relative="1" as="geometry">
            <mxPoint as="offset" />
          </mxGeometry>
        </mxCell>
        <mxCell id="QdUmvHCU_gGnPU_W8vJt-187" style="rounded=0;orthogonalLoop=1;jettySize=auto;html=1;dashed=1;dashPattern=8 8;" edge="1" parent="1" target="QdUmvHCU_gGnPU_W8vJt-8">
          <mxGeometry relative="1" as="geometry">
            <mxPoint x="328.6730371095132" y="272.5322170239242" as="sourcePoint" />
            <mxPoint x="285" y="390" as="targetPoint" />
          </mxGeometry>
        </mxCell>
        <mxCell id="QdUmvHCU_gGnPU_W8vJt-188" value="&amp;lt;&amp;lt;includes&amp;gt;&amp;gt;" style="edgeLabel;html=1;align=center;verticalAlign=middle;resizable=0;points=[];" vertex="1" connectable="0" parent="QdUmvHCU_gGnPU_W8vJt-187">
          <mxGeometry x="-0.0452" relative="1" as="geometry">
            <mxPoint as="offset" />
          </mxGeometry>
        </mxCell>
        <mxCell id="QdUmvHCU_gGnPU_W8vJt-190" value="" style="endArrow=none;html=1;rounded=0;" edge="1" parent="1" target="QdUmvHCU_gGnPU_W8vJt-2">
          <mxGeometry width="50" height="50" relative="1" as="geometry">
            <mxPoint x="-330" y="1155.019492429028" as="sourcePoint" />
            <mxPoint x="6" y="1741" as="targetPoint" />
          </mxGeometry>
        </mxCell>
        <mxCell id="QdUmvHCU_gGnPU_W8vJt-191" value="" style="endArrow=none;html=1;rounded=0;" edge="1" parent="1" target="QdUmvHCU_gGnPU_W8vJt-10">
          <mxGeometry width="50" height="50" relative="1" as="geometry">
            <mxPoint x="-330" y="1156.6181734001757" as="sourcePoint" />
            <mxPoint x="777" y="776" as="targetPoint" />
          </mxGeometry>
        </mxCell>
        <mxCell id="QdUmvHCU_gGnPU_W8vJt-192" value="" style="endArrow=none;html=1;rounded=0;" edge="1" parent="1" target="QdUmvHCU_gGnPU_W8vJt-25">
          <mxGeometry width="50" height="50" relative="1" as="geometry">
            <mxPoint x="-330" y="1162.8536812225611" as="sourcePoint" />
            <mxPoint x="815" y="895" as="targetPoint" />
          </mxGeometry>
        </mxCell>
        <mxCell id="QdUmvHCU_gGnPU_W8vJt-193" value="" style="endArrow=none;html=1;rounded=0;" edge="1" parent="1" target="QdUmvHCU_gGnPU_W8vJt-102">
          <mxGeometry width="50" height="50" relative="1" as="geometry">
            <mxPoint x="-330" y="1157.1927495168165" as="sourcePoint" />
            <mxPoint x="124" y="1325" as="targetPoint" />
          </mxGeometry>
        </mxCell>
        <mxCell id="QdUmvHCU_gGnPU_W8vJt-194" value="" style="endArrow=none;html=1;rounded=0;" edge="1" parent="1" target="QdUmvHCU_gGnPU_W8vJt-101">
          <mxGeometry width="50" height="50" relative="1" as="geometry">
            <mxPoint x="-330" y="1154.9982943320092" as="sourcePoint" />
            <mxPoint x="60" y="1627" as="targetPoint" />
          </mxGeometry>
        </mxCell>
        <mxCell id="QdUmvHCU_gGnPU_W8vJt-196" value="" style="endArrow=none;html=1;rounded=0;" edge="1" parent="1" target="QdUmvHCU_gGnPU_W8vJt-32">
          <mxGeometry width="50" height="50" relative="1" as="geometry">
            <mxPoint x="-330" y="1147.048578605607" as="sourcePoint" />
            <mxPoint x="215" y="652" as="targetPoint" />
          </mxGeometry>
        </mxCell>
        <mxCell id="QdUmvHCU_gGnPU_W8vJt-197" value="" style="endArrow=none;html=1;rounded=0;" edge="1" parent="1" target="QdUmvHCU_gGnPU_W8vJt-12">
          <mxGeometry width="50" height="50" relative="1" as="geometry">
            <mxPoint x="-330" y="1144.5122365891439" as="sourcePoint" />
            <mxPoint x="225" y="661" as="targetPoint" />
          </mxGeometry>
        </mxCell>
        <mxCell id="QdUmvHCU_gGnPU_W8vJt-198" value="" style="endArrow=none;html=1;rounded=0;" edge="1" parent="1" target="QdUmvHCU_gGnPU_W8vJt-46">
          <mxGeometry width="50" height="50" relative="1" as="geometry">
            <mxPoint x="-330" y="1139.0716215952652" as="sourcePoint" />
            <mxPoint x="233" y="561" as="targetPoint" />
          </mxGeometry>
        </mxCell>
        <mxCell id="QdUmvHCU_gGnPU_W8vJt-139" style="rounded=0;orthogonalLoop=1;jettySize=auto;html=1;dashed=1;dashPattern=8 8;" edge="1" parent="1" target="QdUmvHCU_gGnPU_W8vJt-45">
          <mxGeometry relative="1" as="geometry">
            <mxPoint x="18.82901373576624" y="1414.121760301825" as="sourcePoint" />
            <mxPoint x="110" y="1640" as="targetPoint" />
          </mxGeometry>
        </mxCell>
        <mxCell id="QdUmvHCU_gGnPU_W8vJt-140" value="&amp;lt;&amp;lt;includes&amp;gt;&amp;gt;" style="edgeLabel;html=1;align=center;verticalAlign=middle;resizable=0;points=[];" vertex="1" connectable="0" parent="QdUmvHCU_gGnPU_W8vJt-139">
          <mxGeometry x="-0.0452" relative="1" as="geometry">
            <mxPoint as="offset" />
          </mxGeometry>
        </mxCell>
        <mxCell id="QdUmvHCU_gGnPU_W8vJt-62" style="rounded=0;orthogonalLoop=1;jettySize=auto;html=1;dashed=1;dashPattern=8 8;" edge="1" parent="1" source="QdUmvHCU_gGnPU_W8vJt-10">
          <mxGeometry relative="1" as="geometry">
            <mxPoint x="875" y="810" as="targetPoint" />
          </mxGeometry>
        </mxCell>
        <mxCell id="QdUmvHCU_gGnPU_W8vJt-63" value="&amp;lt;&amp;lt;includes&amp;gt;&amp;gt;" style="edgeLabel;html=1;align=center;verticalAlign=middle;resizable=0;points=[];" vertex="1" connectable="0" parent="QdUmvHCU_gGnPU_W8vJt-62">
          <mxGeometry x="-0.0452" relative="1" as="geometry">
            <mxPoint as="offset" />
          </mxGeometry>
        </mxCell>
        <mxCell id="QdUmvHCU_gGnPU_W8vJt-201" value="" style="endArrow=none;html=1;rounded=0;strokeColor=default;align=center;verticalAlign=middle;fontFamily=Helvetica;fontSize=11;fontColor=default;labelBackgroundColor=default;" edge="1" parent="1" target="QdUmvHCU_gGnPU_W8vJt-33">
          <mxGeometry width="50" height="50" relative="1" as="geometry">
            <mxPoint x="941.874311430045" y="711.331285596154" as="sourcePoint" />
            <mxPoint x="1260" y="180" as="targetPoint" />
          </mxGeometry>
        </mxCell>
        <mxCell id="QdUmvHCU_gGnPU_W8vJt-202" value="" style="endArrow=none;html=1;rounded=0;strokeColor=default;align=center;verticalAlign=middle;fontFamily=Helvetica;fontSize=11;fontColor=default;labelBackgroundColor=default;" edge="1" parent="1" target="QdUmvHCU_gGnPU_W8vJt-36">
          <mxGeometry width="50" height="50" relative="1" as="geometry">
            <mxPoint x="962.1681902511136" y="721.4526207866375" as="sourcePoint" />
            <mxPoint x="1520" y="350" as="targetPoint" />
          </mxGeometry>
        </mxCell>
        <mxCell id="QdUmvHCU_gGnPU_W8vJt-209" value="" style="endArrow=none;html=1;rounded=0;strokeColor=default;align=center;verticalAlign=middle;fontFamily=Helvetica;fontSize=11;fontColor=default;labelBackgroundColor=default;" edge="1" parent="1" target="QdUmvHCU_gGnPU_W8vJt-43">
          <mxGeometry width="50" height="50" relative="1" as="geometry">
            <mxPoint x="915.8896093818603" y="59.61199820664933" as="sourcePoint" />
            <mxPoint x="1520" y="350" as="targetPoint" />
          </mxGeometry>
        </mxCell>
        <mxCell id="QdUmvHCU_gGnPU_W8vJt-210" value="" style="endArrow=none;html=1;rounded=0;strokeColor=default;align=center;verticalAlign=middle;fontFamily=Helvetica;fontSize=11;fontColor=default;labelBackgroundColor=default;" edge="1" parent="1" target="QdUmvHCU_gGnPU_W8vJt-40">
          <mxGeometry width="50" height="50" relative="1" as="geometry">
            <mxPoint x="911.5204277313278" y="42.03520172124536" as="sourcePoint" />
            <mxPoint x="1520" y="109" as="targetPoint" />
          </mxGeometry>
        </mxCell>
        <mxCell id="GDb_7NzNRf92v-c6WOx--2" value="Developer" style="shape=umlActor;verticalLabelPosition=bottom;verticalAlign=top;html=1;outlineConnect=0;" parent="1" vertex="1">
          <mxGeometry x="-480" y="550" width="30" height="60" as="geometry" />
        </mxCell>
        <mxCell id="QdUmvHCU_gGnPU_W8vJt-245" value="Use Template" style="ellipse;whiteSpace=wrap;html=1;" vertex="1" parent="1">
          <mxGeometry x="18" y="-620" width="140" height="70" as="geometry" />
        </mxCell>
        <mxCell id="QdUmvHCU_gGnPU_W8vJt-247" value="Search Ads" style="ellipse;whiteSpace=wrap;html=1;" vertex="1" parent="1">
          <mxGeometry x="137" y="-1252" width="140" height="70" as="geometry" />
        </mxCell>
        <mxCell id="QdUmvHCU_gGnPU_W8vJt-248" value="Share Ads" style="ellipse;whiteSpace=wrap;html=1;" vertex="1" parent="1">
          <mxGeometry x="217" y="-1169" width="140" height="70" as="geometry" />
        </mxCell>
        <mxCell id="QdUmvHCU_gGnPU_W8vJt-249" value="Buy System Service" style="ellipse;whiteSpace=wrap;html=1;" vertex="1" parent="1">
          <mxGeometry x="179" y="-1469" width="140" height="70" as="geometry" />
        </mxCell>
        <mxCell id="QdUmvHCU_gGnPU_W8vJt-250" value="Select System Service" style="ellipse;whiteSpace=wrap;html=1;" vertex="1" parent="1">
          <mxGeometry x="190" y="-1364" width="140" height="70" as="geometry" />
        </mxCell>
        <mxCell id="QdUmvHCU_gGnPU_W8vJt-251" value="Google Authenticator Service" style="shape=umlActor;verticalLabelPosition=bottom;verticalAlign=top;html=1;outlineConnect=0;container=0;flipV=0;" vertex="1" parent="1">
          <mxGeometry x="750.5" y="-752" width="30" height="60" as="geometry" />
        </mxCell>
        <mxCell id="QdUmvHCU_gGnPU_W8vJt-252" value="Facebook Authenticator Service" style="shape=umlActor;verticalLabelPosition=bottom;verticalAlign=top;html=1;outlineConnect=0;container=0;flipV=0;" vertex="1" parent="1">
          <mxGeometry x="750.5" y="-919" width="30" height="60" as="geometry" />
        </mxCell>
        <mxCell id="QdUmvHCU_gGnPU_W8vJt-253" value="Momo Credit Service" style="shape=umlActor;verticalLabelPosition=bottom;verticalAlign=top;html=1;outlineConnect=0;container=0;" vertex="1" parent="1">
          <mxGeometry x="831.5" y="-1613" width="30" height="60" as="geometry" />
        </mxCell>
        <mxCell id="QdUmvHCU_gGnPU_W8vJt-254" value="Mastercard Bank Service" style="shape=umlActor;verticalLabelPosition=bottom;verticalAlign=top;html=1;outlineConnect=0;container=0;" vertex="1" parent="1">
          <mxGeometry x="833" y="-1882" width="30" height="60" as="geometry" />
        </mxCell>
        <mxCell id="QdUmvHCU_gGnPU_W8vJt-255" value="Modify Profile" style="ellipse;whiteSpace=wrap;html=1;" vertex="1" parent="1">
          <mxGeometry x="175" y="-798" width="140" height="70" as="geometry" />
        </mxCell>
        <mxCell id="QdUmvHCU_gGnPU_W8vJt-256" value="Preview Profile" style="ellipse;whiteSpace=wrap;html=1;" vertex="1" parent="1">
          <mxGeometry x="124" y="-709" width="140" height="70" as="geometry" />
        </mxCell>
        <mxCell id="QdUmvHCU_gGnPU_W8vJt-257" value="Preview Ads" style="ellipse;whiteSpace=wrap;html=1;" vertex="1" parent="1">
          <mxGeometry x="156" y="-1089" width="140" height="70" as="geometry" />
        </mxCell>
        <mxCell id="QdUmvHCU_gGnPU_W8vJt-260" value="Buy Ads Space" style="ellipse;whiteSpace=wrap;html=1;" vertex="1" parent="1">
          <mxGeometry x="200" y="-967" width="140" height="70" as="geometry" />
        </mxCell>
        <mxCell id="QdUmvHCU_gGnPU_W8vJt-261" value="Sign Out" style="ellipse;whiteSpace=wrap;html=1;flipH=1;flipV=1;" vertex="1" parent="1">
          <mxGeometry x="368" y="-790" width="140" height="70" as="geometry" />
        </mxCell>
        <mxCell id="QdUmvHCU_gGnPU_W8vJt-262" value="Sign In&lt;span style=&quot;white-space: pre;&quot;&gt;&#x9;&lt;/span&gt;" style="ellipse;whiteSpace=wrap;html=1;flipH=1;flipV=1;fontStyle=0" vertex="1" parent="1">
          <mxGeometry x="421" y="-948" width="135" height="67.5" as="geometry" />
        </mxCell>
        <mxCell id="QdUmvHCU_gGnPU_W8vJt-263" value="Customer" style="shape=umlActor;verticalLabelPosition=bottom;verticalAlign=top;html=1;outlineConnect=0;" vertex="1" parent="1">
          <mxGeometry x="-120" y="-1140" width="30" height="60" as="geometry" />
        </mxCell>
        <mxCell id="QdUmvHCU_gGnPU_W8vJt-266" value="Sign In With Facebook&lt;span style=&quot;white-space: pre;&quot;&gt;&#x9;&lt;/span&gt;" style="ellipse;whiteSpace=wrap;html=1;flipH=1;flipV=1;fontStyle=0" vertex="1" parent="1">
          <mxGeometry x="594" y="-1028" width="143" height="66" as="geometry" />
        </mxCell>
        <mxCell id="QdUmvHCU_gGnPU_W8vJt-267" value="Sign In With Google&lt;span style=&quot;white-space: pre;&quot;&gt;&#x9;&lt;/span&gt;" style="ellipse;whiteSpace=wrap;html=1;flipH=1;flipV=1;fontStyle=0" vertex="1" parent="1">
          <mxGeometry x="546" y="-831" width="143" height="66" as="geometry" />
        </mxCell>
        <mxCell id="QdUmvHCU_gGnPU_W8vJt-269" value="" style="endArrow=block;endSize=16;endFill=0;html=1;rounded=0;strokeColor=default;align=center;verticalAlign=middle;fontFamily=Helvetica;fontSize=11;fontColor=default;labelBackgroundColor=default;" edge="1" parent="1" source="QdUmvHCU_gGnPU_W8vJt-266" target="QdUmvHCU_gGnPU_W8vJt-262">
          <mxGeometry width="160" relative="1" as="geometry">
            <mxPoint x="226.5" y="-738" as="sourcePoint" />
            <mxPoint x="386.5" y="-738" as="targetPoint" />
          </mxGeometry>
        </mxCell>
        <mxCell id="QdUmvHCU_gGnPU_W8vJt-270" value="" style="endArrow=block;endSize=16;endFill=0;html=1;rounded=0;strokeColor=default;align=center;verticalAlign=middle;fontFamily=Helvetica;fontSize=11;fontColor=default;labelBackgroundColor=default;" edge="1" parent="1" source="QdUmvHCU_gGnPU_W8vJt-267" target="QdUmvHCU_gGnPU_W8vJt-262">
          <mxGeometry width="160" relative="1" as="geometry">
            <mxPoint x="404" y="-745" as="sourcePoint" />
            <mxPoint x="441" y="-712" as="targetPoint" />
          </mxGeometry>
        </mxCell>
        <mxCell id="QdUmvHCU_gGnPU_W8vJt-271" value="&amp;lt;&amp;lt;includes&amp;gt;&amp;gt;" style="endArrow=open;endSize=12;dashed=1;html=1;rounded=0;dashPattern=8 8;strokeColor=default;align=center;verticalAlign=middle;fontFamily=Helvetica;fontSize=11;fontColor=default;labelBackgroundColor=default;" edge="1" parent="1" source="QdUmvHCU_gGnPU_W8vJt-261" target="QdUmvHCU_gGnPU_W8vJt-262">
          <mxGeometry width="160" relative="1" as="geometry">
            <mxPoint x="235.5" y="-644" as="sourcePoint" />
            <mxPoint x="395.5" y="-644" as="targetPoint" />
          </mxGeometry>
        </mxCell>
        <mxCell id="QdUmvHCU_gGnPU_W8vJt-272" value="" style="endArrow=none;html=1;rounded=0;strokeColor=default;align=center;verticalAlign=middle;fontFamily=Helvetica;fontSize=11;fontColor=default;labelBackgroundColor=default;" edge="1" parent="1" source="QdUmvHCU_gGnPU_W8vJt-252" target="QdUmvHCU_gGnPU_W8vJt-266">
          <mxGeometry width="50" height="50" relative="1" as="geometry">
            <mxPoint x="604.5" y="-370" as="sourcePoint" />
            <mxPoint x="524.5" y="-590" as="targetPoint" />
          </mxGeometry>
        </mxCell>
        <mxCell id="QdUmvHCU_gGnPU_W8vJt-274" value="" style="endArrow=none;html=1;rounded=0;strokeColor=default;align=center;verticalAlign=middle;fontFamily=Helvetica;fontSize=11;fontColor=default;labelBackgroundColor=default;" edge="1" parent="1" source="QdUmvHCU_gGnPU_W8vJt-251" target="QdUmvHCU_gGnPU_W8vJt-267">
          <mxGeometry width="50" height="50" relative="1" as="geometry">
            <mxPoint x="646.5" y="-833" as="sourcePoint" />
            <mxPoint x="265.5" y="-811" as="targetPoint" />
          </mxGeometry>
        </mxCell>
        <mxCell id="QdUmvHCU_gGnPU_W8vJt-277" value="Pay" style="ellipse;whiteSpace=wrap;html=1;" vertex="1" parent="1">
          <mxGeometry x="195" y="-1618" width="140" height="70" as="geometry" />
        </mxCell>
        <mxCell id="QdUmvHCU_gGnPU_W8vJt-278" style="rounded=0;orthogonalLoop=1;jettySize=auto;html=1;endArrow=block;endFill=0;" edge="1" parent="1" source="QdUmvHCU_gGnPU_W8vJt-297" target="QdUmvHCU_gGnPU_W8vJt-277">
          <mxGeometry relative="1" as="geometry">
            <mxPoint x="387.5" y="-1519" as="sourcePoint" />
            <mxPoint x="490.5" y="-1659" as="targetPoint" />
          </mxGeometry>
        </mxCell>
        <mxCell id="QdUmvHCU_gGnPU_W8vJt-280" style="rounded=0;orthogonalLoop=1;jettySize=auto;html=1;endArrow=block;endFill=0;" edge="1" parent="1" source="QdUmvHCU_gGnPU_W8vJt-298" target="QdUmvHCU_gGnPU_W8vJt-277">
          <mxGeometry relative="1" as="geometry">
            <mxPoint x="613.5" y="-1463" as="sourcePoint" />
            <mxPoint x="695.5" y="-1612" as="targetPoint" />
          </mxGeometry>
        </mxCell>
        <mxCell id="QdUmvHCU_gGnPU_W8vJt-282" style="rounded=0;orthogonalLoop=1;jettySize=auto;html=1;endArrow=block;endFill=0;" edge="1" parent="1" source="QdUmvHCU_gGnPU_W8vJt-299" target="QdUmvHCU_gGnPU_W8vJt-277">
          <mxGeometry relative="1" as="geometry">
            <mxPoint x="452.5" y="-1453" as="sourcePoint" />
            <mxPoint x="553.5" y="-1602" as="targetPoint" />
          </mxGeometry>
        </mxCell>
        <mxCell id="QdUmvHCU_gGnPU_W8vJt-286" style="rounded=0;orthogonalLoop=1;jettySize=auto;html=1;endArrow=block;endFill=0;" edge="1" parent="1" source="QdUmvHCU_gGnPU_W8vJt-297" target="QdUmvHCU_gGnPU_W8vJt-301">
          <mxGeometry relative="1" as="geometry">
            <mxPoint x="554" y="-1362" as="sourcePoint" />
            <mxPoint x="519" y="-1398.75" as="targetPoint" />
          </mxGeometry>
        </mxCell>
        <mxCell id="QdUmvHCU_gGnPU_W8vJt-297" value="Pay By Paypal" style="ellipse;whiteSpace=wrap;html=1;" vertex="1" parent="1">
          <mxGeometry x="345" y="-1331" width="140" height="70" as="geometry" />
        </mxCell>
        <mxCell id="QdUmvHCU_gGnPU_W8vJt-298" value="Pay By Momo" style="ellipse;whiteSpace=wrap;html=1;" vertex="1" parent="1">
          <mxGeometry x="675" y="-1618" width="140" height="70" as="geometry" />
        </mxCell>
        <mxCell id="QdUmvHCU_gGnPU_W8vJt-299" value="Pay By Mastercard" style="ellipse;whiteSpace=wrap;html=1;" vertex="1" parent="1">
          <mxGeometry x="345" y="-1884" width="140" height="70" as="geometry" />
        </mxCell>
        <mxCell id="QdUmvHCU_gGnPU_W8vJt-301" value="Scan QRcode" style="ellipse;whiteSpace=wrap;html=1;" vertex="1" parent="1">
          <mxGeometry x="501" y="-1501" width="140" height="70" as="geometry" />
        </mxCell>
        <mxCell id="QdUmvHCU_gGnPU_W8vJt-302" value="Pay Directly" style="ellipse;whiteSpace=wrap;html=1;" vertex="1" parent="1">
          <mxGeometry x="470" y="-1695" width="140" height="70" as="geometry" />
        </mxCell>
        <mxCell id="QdUmvHCU_gGnPU_W8vJt-307" value="" style="endArrow=none;html=1;rounded=0;strokeColor=default;align=center;verticalAlign=middle;fontFamily=Helvetica;fontSize=11;fontColor=default;labelBackgroundColor=default;" edge="1" parent="1" source="QdUmvHCU_gGnPU_W8vJt-308" target="QdUmvHCU_gGnPU_W8vJt-297">
          <mxGeometry width="50" height="50" relative="1" as="geometry">
            <mxPoint x="725" y="-1352" as="sourcePoint" />
            <mxPoint x="529" y="-1297" as="targetPoint" />
          </mxGeometry>
        </mxCell>
        <mxCell id="QdUmvHCU_gGnPU_W8vJt-308" value="Paypal Credit Service" style="shape=umlActor;verticalLabelPosition=bottom;verticalAlign=top;html=1;outlineConnect=0;container=0;" vertex="1" parent="1">
          <mxGeometry x="833" y="-1324" width="30" height="60" as="geometry" />
        </mxCell>
        <mxCell id="QdUmvHCU_gGnPU_W8vJt-309" value="" style="endArrow=none;html=1;rounded=0;strokeColor=default;align=center;verticalAlign=middle;fontFamily=Helvetica;fontSize=11;fontColor=default;labelBackgroundColor=default;" edge="1" parent="1" source="QdUmvHCU_gGnPU_W8vJt-254" target="QdUmvHCU_gGnPU_W8vJt-299">
          <mxGeometry width="50" height="50" relative="1" as="geometry">
            <mxPoint x="900" y="-1298" as="sourcePoint" />
            <mxPoint x="489" y="-1428" as="targetPoint" />
          </mxGeometry>
        </mxCell>
        <mxCell id="QdUmvHCU_gGnPU_W8vJt-310" value="" style="endArrow=none;html=1;rounded=0;strokeColor=default;align=center;verticalAlign=middle;fontFamily=Helvetica;fontSize=11;fontColor=default;labelBackgroundColor=default;" edge="1" parent="1" source="QdUmvHCU_gGnPU_W8vJt-253" target="QdUmvHCU_gGnPU_W8vJt-298">
          <mxGeometry width="50" height="50" relative="1" as="geometry">
            <mxPoint x="910" y="-1288" as="sourcePoint" />
            <mxPoint x="499" y="-1418" as="targetPoint" />
          </mxGeometry>
        </mxCell>
        <mxCell id="QdUmvHCU_gGnPU_W8vJt-312" value="" style="endArrow=none;html=1;rounded=0;strokeColor=default;align=center;verticalAlign=middle;fontFamily=Helvetica;fontSize=11;fontColor=default;labelBackgroundColor=default;" edge="1" parent="1" source="QdUmvHCU_gGnPU_W8vJt-277" target="QdUmvHCU_gGnPU_W8vJt-263">
          <mxGeometry width="50" height="50" relative="1" as="geometry">
            <mxPoint x="843" y="-1284" as="sourcePoint" />
            <mxPoint x="495" y="-1286" as="targetPoint" />
          </mxGeometry>
        </mxCell>
        <mxCell id="QdUmvHCU_gGnPU_W8vJt-313" value="" style="endArrow=none;html=1;rounded=0;strokeColor=default;align=center;verticalAlign=middle;fontFamily=Helvetica;fontSize=11;fontColor=default;labelBackgroundColor=default;" edge="1" parent="1" source="QdUmvHCU_gGnPU_W8vJt-249" target="QdUmvHCU_gGnPU_W8vJt-263">
          <mxGeometry width="50" height="50" relative="1" as="geometry">
            <mxPoint x="249" y="-1540" as="sourcePoint" />
            <mxPoint x="-80" y="-1119" as="targetPoint" />
          </mxGeometry>
        </mxCell>
        <mxCell id="QdUmvHCU_gGnPU_W8vJt-314" value="" style="endArrow=none;html=1;rounded=0;strokeColor=default;align=center;verticalAlign=middle;fontFamily=Helvetica;fontSize=11;fontColor=default;labelBackgroundColor=default;" edge="1" parent="1" source="QdUmvHCU_gGnPU_W8vJt-250" target="QdUmvHCU_gGnPU_W8vJt-263">
          <mxGeometry width="50" height="50" relative="1" as="geometry">
            <mxPoint x="259" y="-1530" as="sourcePoint" />
            <mxPoint x="-70" y="-1109" as="targetPoint" />
          </mxGeometry>
        </mxCell>
        <mxCell id="QdUmvHCU_gGnPU_W8vJt-315" value="" style="endArrow=none;html=1;rounded=0;strokeColor=default;align=center;verticalAlign=middle;fontFamily=Helvetica;fontSize=11;fontColor=default;labelBackgroundColor=default;" edge="1" parent="1" source="QdUmvHCU_gGnPU_W8vJt-247" target="QdUmvHCU_gGnPU_W8vJt-263">
          <mxGeometry width="50" height="50" relative="1" as="geometry">
            <mxPoint x="269" y="-1520" as="sourcePoint" />
            <mxPoint x="-60" y="-1099" as="targetPoint" />
          </mxGeometry>
        </mxCell>
        <mxCell id="QdUmvHCU_gGnPU_W8vJt-316" value="" style="endArrow=none;html=1;rounded=0;strokeColor=default;align=center;verticalAlign=middle;fontFamily=Helvetica;fontSize=11;fontColor=default;labelBackgroundColor=default;" edge="1" parent="1" source="QdUmvHCU_gGnPU_W8vJt-248" target="QdUmvHCU_gGnPU_W8vJt-263">
          <mxGeometry width="50" height="50" relative="1" as="geometry">
            <mxPoint x="213" y="-1184" as="sourcePoint" />
            <mxPoint x="-50" y="-1089" as="targetPoint" />
          </mxGeometry>
        </mxCell>
        <mxCell id="QdUmvHCU_gGnPU_W8vJt-317" value="" style="endArrow=none;html=1;rounded=0;strokeColor=default;align=center;verticalAlign=middle;fontFamily=Helvetica;fontSize=11;fontColor=default;labelBackgroundColor=default;" edge="1" parent="1" source="QdUmvHCU_gGnPU_W8vJt-257" target="QdUmvHCU_gGnPU_W8vJt-263">
          <mxGeometry width="50" height="50" relative="1" as="geometry">
            <mxPoint x="200" y="-1087" as="sourcePoint" />
            <mxPoint x="-40" y="-1079" as="targetPoint" />
          </mxGeometry>
        </mxCell>
        <mxCell id="QdUmvHCU_gGnPU_W8vJt-318" value="" style="endArrow=none;html=1;rounded=0;strokeColor=default;align=center;verticalAlign=middle;fontFamily=Helvetica;fontSize=11;fontColor=default;labelBackgroundColor=default;" edge="1" parent="1" source="QdUmvHCU_gGnPU_W8vJt-260" target="QdUmvHCU_gGnPU_W8vJt-263">
          <mxGeometry width="50" height="50" relative="1" as="geometry">
            <mxPoint x="211" y="-992" as="sourcePoint" />
            <mxPoint x="-30" y="-1069" as="targetPoint" />
          </mxGeometry>
        </mxCell>
        <mxCell id="QdUmvHCU_gGnPU_W8vJt-319" value="" style="endArrow=none;html=1;rounded=0;strokeColor=default;align=center;verticalAlign=middle;fontFamily=Helvetica;fontSize=11;fontColor=default;labelBackgroundColor=default;" edge="1" parent="1" source="QdUmvHCU_gGnPU_W8vJt-262" target="QdUmvHCU_gGnPU_W8vJt-263">
          <mxGeometry width="50" height="50" relative="1" as="geometry">
            <mxPoint x="229" y="-886" as="sourcePoint" />
            <mxPoint x="-20" y="-1059" as="targetPoint" />
          </mxGeometry>
        </mxCell>
        <mxCell id="QdUmvHCU_gGnPU_W8vJt-320" value="" style="endArrow=none;html=1;rounded=0;strokeColor=default;align=center;verticalAlign=middle;fontFamily=Helvetica;fontSize=11;fontColor=default;labelBackgroundColor=default;" edge="1" parent="1" source="QdUmvHCU_gGnPU_W8vJt-261" target="QdUmvHCU_gGnPU_W8vJt-263">
          <mxGeometry width="50" height="50" relative="1" as="geometry">
            <mxPoint x="249" y="-694" as="sourcePoint" />
            <mxPoint x="-10" y="-1049" as="targetPoint" />
          </mxGeometry>
        </mxCell>
        <mxCell id="QdUmvHCU_gGnPU_W8vJt-321" value="" style="endArrow=none;html=1;rounded=0;strokeColor=default;align=center;verticalAlign=middle;fontFamily=Helvetica;fontSize=11;fontColor=default;labelBackgroundColor=default;" edge="1" parent="1" source="QdUmvHCU_gGnPU_W8vJt-255" target="QdUmvHCU_gGnPU_W8vJt-263">
          <mxGeometry width="50" height="50" relative="1" as="geometry">
            <mxPoint x="255" y="-558" as="sourcePoint" />
            <mxPoint y="-1039" as="targetPoint" />
          </mxGeometry>
        </mxCell>
        <mxCell id="QdUmvHCU_gGnPU_W8vJt-322" value="" style="endArrow=none;html=1;rounded=0;strokeColor=default;align=center;verticalAlign=middle;fontFamily=Helvetica;fontSize=11;fontColor=default;labelBackgroundColor=default;" edge="1" parent="1" source="QdUmvHCU_gGnPU_W8vJt-256" target="QdUmvHCU_gGnPU_W8vJt-263">
          <mxGeometry width="50" height="50" relative="1" as="geometry">
            <mxPoint x="259" y="-423" as="sourcePoint" />
            <mxPoint x="10" y="-1029" as="targetPoint" />
          </mxGeometry>
        </mxCell>
        <mxCell id="QdUmvHCU_gGnPU_W8vJt-323" value="" style="endArrow=none;html=1;rounded=0;strokeColor=default;align=center;verticalAlign=middle;fontFamily=Helvetica;fontSize=11;fontColor=default;labelBackgroundColor=default;" edge="1" parent="1" source="QdUmvHCU_gGnPU_W8vJt-245" target="QdUmvHCU_gGnPU_W8vJt-263">
          <mxGeometry width="50" height="50" relative="1" as="geometry">
            <mxPoint x="261" y="-309" as="sourcePoint" />
            <mxPoint x="20" y="-1019" as="targetPoint" />
          </mxGeometry>
        </mxCell>
        <mxCell id="QdUmvHCU_gGnPU_W8vJt-325" value="Use Template" style="ellipse;whiteSpace=wrap;html=1;" vertex="1" parent="1">
          <mxGeometry x="1578" y="-1286" width="140" height="70" as="geometry" />
        </mxCell>
        <mxCell id="QdUmvHCU_gGnPU_W8vJt-338" value="Modify Ads" style="ellipse;whiteSpace=wrap;html=1;" vertex="1" parent="1">
          <mxGeometry x="1500.5" y="-1431" width="140" height="70" as="geometry" />
        </mxCell>
        <mxCell id="QdUmvHCU_gGnPU_W8vJt-339" value="Create Ads" style="ellipse;whiteSpace=wrap;html=1;" vertex="1" parent="1">
          <mxGeometry x="1514.5" y="-1150" width="140" height="70" as="geometry" />
        </mxCell>
        <mxCell id="QdUmvHCU_gGnPU_W8vJt-345" style="rounded=0;orthogonalLoop=1;jettySize=auto;html=1;strokeColor=default;align=center;verticalAlign=middle;fontFamily=Helvetica;fontSize=11;fontColor=default;labelBackgroundColor=default;endArrow=blockThin;endFill=0;" edge="1" parent="1" source="QdUmvHCU_gGnPU_W8vJt-343" target="QdUmvHCU_gGnPU_W8vJt-344">
          <mxGeometry relative="1" as="geometry" />
        </mxCell>
        <mxCell id="QdUmvHCU_gGnPU_W8vJt-346" style="rounded=0;orthogonalLoop=1;jettySize=auto;html=1;strokeColor=default;align=center;verticalAlign=middle;fontFamily=Helvetica;fontSize=11;fontColor=default;labelBackgroundColor=default;endArrow=none;endFill=0;" edge="1" parent="1" source="QdUmvHCU_gGnPU_W8vJt-343" target="QdUmvHCU_gGnPU_W8vJt-325">
          <mxGeometry relative="1" as="geometry" />
        </mxCell>
        <mxCell id="QdUmvHCU_gGnPU_W8vJt-343" value="Merchant" style="shape=umlActor;verticalLabelPosition=bottom;verticalAlign=top;html=1;outlineConnect=0;" vertex="1" parent="1">
          <mxGeometry x="1421.5" y="-1226" width="30" height="60" as="geometry" />
        </mxCell>
        <mxCell id="QdUmvHCU_gGnPU_W8vJt-344" value="Customer" style="shape=umlActor;verticalLabelPosition=bottom;verticalAlign=top;html=1;outlineConnect=0;" vertex="1" parent="1">
          <mxGeometry x="1335.5" y="-1226" width="30" height="60" as="geometry" />
        </mxCell>
        <mxCell id="QdUmvHCU_gGnPU_W8vJt-347" style="rounded=0;orthogonalLoop=1;jettySize=auto;html=1;strokeColor=default;align=center;verticalAlign=middle;fontFamily=Helvetica;fontSize=11;fontColor=default;labelBackgroundColor=default;endArrow=none;endFill=0;" edge="1" parent="1" source="QdUmvHCU_gGnPU_W8vJt-343" target="QdUmvHCU_gGnPU_W8vJt-339">
          <mxGeometry relative="1" as="geometry">
            <mxPoint x="1461.5" y="-1188" as="sourcePoint" />
            <mxPoint x="1548.5" y="-1198" as="targetPoint" />
          </mxGeometry>
        </mxCell>
        <mxCell id="QdUmvHCU_gGnPU_W8vJt-349" style="rounded=0;orthogonalLoop=1;jettySize=auto;html=1;strokeColor=default;align=center;verticalAlign=middle;fontFamily=Helvetica;fontSize=11;fontColor=default;labelBackgroundColor=default;endArrow=none;endFill=0;" edge="1" parent="1" source="QdUmvHCU_gGnPU_W8vJt-343" target="QdUmvHCU_gGnPU_W8vJt-338">
          <mxGeometry relative="1" as="geometry">
            <mxPoint x="1481.5" y="-1168" as="sourcePoint" />
            <mxPoint x="1583.5" y="-1265" as="targetPoint" />
          </mxGeometry>
        </mxCell>
        <mxCell id="QdUmvHCU_gGnPU_W8vJt-352" value="&amp;lt;&amp;lt;includes&amp;gt;&amp;gt;" style="endArrow=open;endSize=12;dashed=1;html=1;rounded=0;dashPattern=8 8;strokeColor=default;align=center;verticalAlign=middle;fontFamily=Helvetica;fontSize=11;fontColor=default;labelBackgroundColor=default;" edge="1" parent="1" source="QdUmvHCU_gGnPU_W8vJt-255" target="QdUmvHCU_gGnPU_W8vJt-262">
          <mxGeometry width="160" relative="1" as="geometry">
            <mxPoint x="415" y="-580" as="sourcePoint" />
            <mxPoint x="415" y="-682" as="targetPoint" />
          </mxGeometry>
        </mxCell>
        <mxCell id="QdUmvHCU_gGnPU_W8vJt-354" value="&amp;lt;&amp;lt;includes&amp;gt;&amp;gt;" style="endArrow=open;endSize=12;dashed=1;html=1;rounded=0;dashPattern=8 8;strokeColor=default;align=center;verticalAlign=middle;fontFamily=Helvetica;fontSize=11;fontColor=default;labelBackgroundColor=default;" edge="1" parent="1" source="QdUmvHCU_gGnPU_W8vJt-260" target="QdUmvHCU_gGnPU_W8vJt-262">
          <mxGeometry width="160" relative="1" as="geometry">
            <mxPoint x="485.31" y="-922.85" as="sourcePoint" />
            <mxPoint x="592.31" y="-1019.85" as="targetPoint" />
          </mxGeometry>
        </mxCell>
        <mxCell id="QdUmvHCU_gGnPU_W8vJt-355" value="&amp;lt;&amp;lt;includes&amp;gt;&amp;gt;" style="endArrow=open;endSize=12;dashed=1;html=1;rounded=0;dashPattern=8 8;strokeColor=default;align=center;verticalAlign=middle;fontFamily=Helvetica;fontSize=11;fontColor=default;labelBackgroundColor=default;" edge="1" parent="1" source="QdUmvHCU_gGnPU_W8vJt-250" target="QdUmvHCU_gGnPU_W8vJt-262">
          <mxGeometry width="160" relative="1" as="geometry">
            <mxPoint x="378.74" y="-951.65" as="sourcePoint" />
            <mxPoint x="458.74" y="-812.65" as="targetPoint" />
          </mxGeometry>
        </mxCell>
        <mxCell id="QdUmvHCU_gGnPU_W8vJt-356" value="&amp;lt;&amp;lt;includes&amp;gt;&amp;gt;" style="endArrow=open;endSize=12;dashed=1;html=1;rounded=0;dashPattern=8 8;strokeColor=default;align=center;verticalAlign=middle;fontFamily=Helvetica;fontSize=11;fontColor=default;labelBackgroundColor=default;" edge="1" parent="1" source="QdUmvHCU_gGnPU_W8vJt-250" target="QdUmvHCU_gGnPU_W8vJt-249">
          <mxGeometry width="160" relative="1" as="geometry">
            <mxPoint x="357.40999999999997" y="-1376.21" as="sourcePoint" />
            <mxPoint x="549.41" y="-1028.21" as="targetPoint" />
          </mxGeometry>
        </mxCell>
        <mxCell id="QdUmvHCU_gGnPU_W8vJt-357" value="&amp;lt;&amp;lt;includes&amp;gt;&amp;gt;" style="endArrow=open;endSize=12;dashed=1;html=1;rounded=0;dashPattern=8 8;strokeColor=default;align=center;verticalAlign=middle;fontFamily=Helvetica;fontSize=11;fontColor=default;labelBackgroundColor=default;" edge="1" parent="1" source="QdUmvHCU_gGnPU_W8vJt-249" target="QdUmvHCU_gGnPU_W8vJt-277">
          <mxGeometry width="160" relative="1" as="geometry">
            <mxPoint x="266" y="-1354" as="sourcePoint" />
            <mxPoint x="263" y="-1389" as="targetPoint" />
          </mxGeometry>
        </mxCell>
        <mxCell id="QdUmvHCU_gGnPU_W8vJt-359" style="rounded=0;orthogonalLoop=1;jettySize=auto;html=1;endArrow=block;endFill=0;" edge="1" parent="1" source="QdUmvHCU_gGnPU_W8vJt-299" target="QdUmvHCU_gGnPU_W8vJt-301">
          <mxGeometry relative="1" as="geometry">
            <mxPoint x="448" y="-1319" as="sourcePoint" />
            <mxPoint x="527" y="-1435" as="targetPoint" />
          </mxGeometry>
        </mxCell>
        <mxCell id="QdUmvHCU_gGnPU_W8vJt-360" style="rounded=0;orthogonalLoop=1;jettySize=auto;html=1;endArrow=block;endFill=0;" edge="1" parent="1" source="QdUmvHCU_gGnPU_W8vJt-298" target="QdUmvHCU_gGnPU_W8vJt-301">
          <mxGeometry relative="1" as="geometry">
            <mxPoint x="437" y="-1804" as="sourcePoint" />
            <mxPoint x="538" y="-1503" as="targetPoint" />
          </mxGeometry>
        </mxCell>
        <mxCell id="QdUmvHCU_gGnPU_W8vJt-361" style="rounded=0;orthogonalLoop=1;jettySize=auto;html=1;endArrow=block;endFill=0;" edge="1" parent="1" source="QdUmvHCU_gGnPU_W8vJt-299" target="QdUmvHCU_gGnPU_W8vJt-302">
          <mxGeometry relative="1" as="geometry">
            <mxPoint x="588" y="-1742" as="sourcePoint" />
            <mxPoint x="474" y="-1794" as="targetPoint" />
          </mxGeometry>
        </mxCell>
        <mxCell id="QdUmvHCU_gGnPU_W8vJt-362" style="rounded=0;orthogonalLoop=1;jettySize=auto;html=1;endArrow=block;endFill=0;" edge="1" parent="1" source="QdUmvHCU_gGnPU_W8vJt-297" target="QdUmvHCU_gGnPU_W8vJt-302">
          <mxGeometry relative="1" as="geometry">
            <mxPoint x="457" y="-1784" as="sourcePoint" />
            <mxPoint x="558" y="-1483" as="targetPoint" />
          </mxGeometry>
        </mxCell>
        <mxCell id="QdUmvHCU_gGnPU_W8vJt-363" style="rounded=0;orthogonalLoop=1;jettySize=auto;html=1;endArrow=block;endFill=0;" edge="1" parent="1" source="QdUmvHCU_gGnPU_W8vJt-298" target="QdUmvHCU_gGnPU_W8vJt-302">
          <mxGeometry relative="1" as="geometry">
            <mxPoint x="467" y="-1774" as="sourcePoint" />
            <mxPoint x="568" y="-1473" as="targetPoint" />
          </mxGeometry>
        </mxCell>
      </root>
    </mxGraphModel>
  </diagram>
</mxfile>
